<mxfile host="Electron" modified="2023-09-16T14:18:23.673Z" agent="Mozilla/5.0 (Windows NT 10.0; Win64; x64) AppleWebKit/537.36 (KHTML, like Gecko) draw.io/21.7.5 Chrome/114.0.5735.289 Electron/25.8.1 Safari/537.36" etag="LjgrscxVqLkxQqj3U7ej" version="21.7.5" type="device">
  <diagram id="0dkuaYz5hIoRumWue4XQ" name="Use Case">
    <mxGraphModel dx="1182" dy="683" grid="0" gridSize="10" guides="1" tooltips="1" connect="1" arrows="1" fold="1" page="1" pageScale="1" pageWidth="850" pageHeight="1100" math="0" shadow="0">
      <root>
        <mxCell id="0" />
        <mxCell id="1" parent="0" />
        <mxCell id="cOUai1nqrWAT9LKNyIlI-1" value="User" style="shape=umlActor;verticalLabelPosition=bottom;verticalAlign=top;html=1;" parent="1" vertex="1">
          <mxGeometry x="100" y="70" width="30" height="60" as="geometry" />
        </mxCell>
        <mxCell id="cOUai1nqrWAT9LKNyIlI-5" value="" style="rounded=0;whiteSpace=wrap;html=1;" parent="1" vertex="1">
          <mxGeometry x="160" y="40" width="450" height="380" as="geometry" />
        </mxCell>
        <mxCell id="cOUai1nqrWAT9LKNyIlI-7" value="Melakukan&lt;br&gt;Registrasi" style="ellipse;whiteSpace=wrap;html=1;fontSize=10;" parent="1" vertex="1">
          <mxGeometry x="200" y="50" width="110" height="40" as="geometry" />
        </mxCell>
        <mxCell id="cOUai1nqrWAT9LKNyIlI-9" value="" style="edgeStyle=none;html=1;endArrow=none;verticalAlign=bottom;fontSize=10;entryX=0;entryY=0.5;entryDx=0;entryDy=0;" parent="1" target="cOUai1nqrWAT9LKNyIlI-7" edge="1">
          <mxGeometry width="160" relative="1" as="geometry">
            <mxPoint x="130" y="100" as="sourcePoint" />
            <mxPoint x="300" y="110" as="targetPoint" />
          </mxGeometry>
        </mxCell>
        <mxCell id="cOUai1nqrWAT9LKNyIlI-14" value="&lt;font style=&quot;font-size: 10px;&quot;&gt;Melakukan&amp;nbsp;&lt;br&gt;Pemilihan Waktu,&lt;br&gt;Kereta, dan&amp;nbsp; Tempat duduk&lt;/font&gt;" style="ellipse;whiteSpace=wrap;html=1;fontSize=10;" parent="1" vertex="1">
          <mxGeometry x="290" y="85" width="110" height="50" as="geometry" />
        </mxCell>
        <mxCell id="cOUai1nqrWAT9LKNyIlI-15" value="" style="edgeStyle=none;html=1;endArrow=none;verticalAlign=bottom;fontSize=10;entryX=0.019;entryY=0.362;entryDx=0;entryDy=0;entryPerimeter=0;" parent="1" target="cOUai1nqrWAT9LKNyIlI-14" edge="1">
          <mxGeometry width="160" relative="1" as="geometry">
            <mxPoint x="130" y="100" as="sourcePoint" />
            <mxPoint x="290" y="100" as="targetPoint" />
          </mxGeometry>
        </mxCell>
        <mxCell id="Zvv1Aw0VFS4tFmu2ENRy-1" value="Melakukan&lt;br&gt;Pembayaran" style="ellipse;whiteSpace=wrap;html=1;fontSize=10;" parent="1" vertex="1">
          <mxGeometry x="200" y="130" width="110" height="50" as="geometry" />
        </mxCell>
        <mxCell id="Zvv1Aw0VFS4tFmu2ENRy-2" value="" style="edgeStyle=none;html=1;endArrow=none;verticalAlign=bottom;fontSize=10;entryX=0.019;entryY=0.362;entryDx=0;entryDy=0;entryPerimeter=0;" parent="1" target="Zvv1Aw0VFS4tFmu2ENRy-1" edge="1">
          <mxGeometry width="160" relative="1" as="geometry">
            <mxPoint x="130" y="100" as="sourcePoint" />
            <mxPoint x="290" y="160" as="targetPoint" />
          </mxGeometry>
        </mxCell>
        <mxCell id="Zvv1Aw0VFS4tFmu2ENRy-3" value="Melihat&lt;br&gt;Tiket" style="ellipse;whiteSpace=wrap;html=1;fontSize=10;" parent="1" vertex="1">
          <mxGeometry x="240" y="190" width="110" height="50" as="geometry" />
        </mxCell>
        <mxCell id="Zvv1Aw0VFS4tFmu2ENRy-4" value="" style="edgeStyle=none;html=1;endArrow=none;verticalAlign=bottom;fontSize=10;entryX=0.019;entryY=0.362;entryDx=0;entryDy=0;entryPerimeter=0;" parent="1" target="Zvv1Aw0VFS4tFmu2ENRy-3" edge="1">
          <mxGeometry width="160" relative="1" as="geometry">
            <mxPoint x="130" y="100" as="sourcePoint" />
            <mxPoint x="320" y="220" as="targetPoint" />
          </mxGeometry>
        </mxCell>
        <mxCell id="Zvv1Aw0VFS4tFmu2ENRy-6" value="Admin" style="shape=umlActor;verticalLabelPosition=bottom;verticalAlign=top;html=1;" parent="1" vertex="1">
          <mxGeometry x="680" y="70" width="30" height="60" as="geometry" />
        </mxCell>
        <mxCell id="Zvv1Aw0VFS4tFmu2ENRy-9" value="Kelola Data&lt;br&gt;User" style="ellipse;whiteSpace=wrap;html=1;fontSize=10;" parent="1" vertex="1">
          <mxGeometry x="500" y="50" width="100" height="40" as="geometry" />
        </mxCell>
        <mxCell id="Zvv1Aw0VFS4tFmu2ENRy-10" value="" style="edgeStyle=none;html=1;endArrow=none;verticalAlign=bottom;fontSize=10;exitX=1;exitY=0.5;exitDx=0;exitDy=0;" parent="1" source="Zvv1Aw0VFS4tFmu2ENRy-9" edge="1">
          <mxGeometry width="160" relative="1" as="geometry">
            <mxPoint x="590" y="70" as="sourcePoint" />
            <mxPoint x="660" y="100" as="targetPoint" />
          </mxGeometry>
        </mxCell>
        <mxCell id="Zvv1Aw0VFS4tFmu2ENRy-11" value="Kelola Jadwal&lt;br&gt;Kereta Api" style="ellipse;whiteSpace=wrap;html=1;fontSize=10;" parent="1" vertex="1">
          <mxGeometry x="440" y="90" width="100" height="40" as="geometry" />
        </mxCell>
        <mxCell id="Zvv1Aw0VFS4tFmu2ENRy-12" value="" style="edgeStyle=none;html=1;endArrow=none;verticalAlign=bottom;fontSize=10;exitX=1;exitY=0.5;exitDx=0;exitDy=0;" parent="1" source="Zvv1Aw0VFS4tFmu2ENRy-11" edge="1">
          <mxGeometry width="160" relative="1" as="geometry">
            <mxPoint x="590" y="130" as="sourcePoint" />
            <mxPoint x="660" y="100" as="targetPoint" />
          </mxGeometry>
        </mxCell>
        <mxCell id="Zvv1Aw0VFS4tFmu2ENRy-13" value="Kelola Pembayaran&lt;br&gt;User" style="ellipse;whiteSpace=wrap;html=1;fontSize=10;" parent="1" vertex="1">
          <mxGeometry x="490" y="130" width="100" height="40" as="geometry" />
        </mxCell>
        <mxCell id="Zvv1Aw0VFS4tFmu2ENRy-14" value="" style="edgeStyle=none;html=1;endArrow=none;verticalAlign=bottom;fontSize=10;exitX=1;exitY=0.5;exitDx=0;exitDy=0;" parent="1" source="Zvv1Aw0VFS4tFmu2ENRy-13" edge="1">
          <mxGeometry width="160" relative="1" as="geometry">
            <mxPoint x="590" y="175" as="sourcePoint" />
            <mxPoint x="660" y="100" as="targetPoint" />
          </mxGeometry>
        </mxCell>
        <mxCell id="Zvv1Aw0VFS4tFmu2ENRy-15" value="Kelola Metode&lt;br&gt;Pembayaran" style="ellipse;whiteSpace=wrap;html=1;fontSize=10;" parent="1" vertex="1">
          <mxGeometry x="480" y="180" width="100" height="40" as="geometry" />
        </mxCell>
        <mxCell id="Zvv1Aw0VFS4tFmu2ENRy-16" value="" style="edgeStyle=none;html=1;endArrow=none;verticalAlign=bottom;fontSize=10;exitX=1;exitY=0.5;exitDx=0;exitDy=0;" parent="1" source="Zvv1Aw0VFS4tFmu2ENRy-15" edge="1">
          <mxGeometry width="160" relative="1" as="geometry">
            <mxPoint x="580" y="225" as="sourcePoint" />
            <mxPoint x="660" y="100" as="targetPoint" />
          </mxGeometry>
        </mxCell>
        <mxCell id="Q8EcaYiD4kr5qvAaW-lo-1" value="Customer Support" style="shape=umlActor;verticalLabelPosition=bottom;verticalAlign=top;html=1;" vertex="1" parent="1">
          <mxGeometry x="670" y="310" width="30" height="60" as="geometry" />
        </mxCell>
        <mxCell id="Q8EcaYiD4kr5qvAaW-lo-4" value="Melihat Data&lt;br&gt;User" style="ellipse;whiteSpace=wrap;html=1;fontSize=10;" vertex="1" parent="1">
          <mxGeometry x="480" y="260" width="100" height="40" as="geometry" />
        </mxCell>
        <mxCell id="Q8EcaYiD4kr5qvAaW-lo-5" value="" style="edgeStyle=none;html=1;endArrow=none;verticalAlign=bottom;fontSize=10;exitX=1;exitY=0.5;exitDx=0;exitDy=0;" edge="1" parent="1" source="Q8EcaYiD4kr5qvAaW-lo-4">
          <mxGeometry width="160" relative="1" as="geometry">
            <mxPoint x="580" y="300" as="sourcePoint" />
            <mxPoint x="650" y="330" as="targetPoint" />
          </mxGeometry>
        </mxCell>
        <mxCell id="Q8EcaYiD4kr5qvAaW-lo-6" value="&amp;lt;&amp;lt;extend&amp;gt;&amp;gt;" style="edgeStyle=none;html=1;startArrow=open;endArrow=none;startSize=12;verticalAlign=bottom;dashed=1;labelBackgroundColor=none;fontSize=10;" edge="1" parent="1" source="Zvv1Aw0VFS4tFmu2ENRy-1" target="Zvv1Aw0VFS4tFmu2ENRy-13">
          <mxGeometry width="160" relative="1" as="geometry">
            <mxPoint x="320" y="160" as="sourcePoint" />
            <mxPoint x="490" y="151" as="targetPoint" />
          </mxGeometry>
        </mxCell>
        <mxCell id="Q8EcaYiD4kr5qvAaW-lo-7" value="&amp;lt;&amp;lt;extend&amp;gt;&amp;gt;" style="edgeStyle=none;html=1;startArrow=open;endArrow=none;startSize=12;verticalAlign=bottom;dashed=1;labelBackgroundColor=none;fontSize=10;" edge="1" parent="1" source="cOUai1nqrWAT9LKNyIlI-7" target="Zvv1Aw0VFS4tFmu2ENRy-9">
          <mxGeometry width="160" relative="1" as="geometry">
            <mxPoint x="321" y="70" as="sourcePoint" />
            <mxPoint x="500" y="65" as="targetPoint" />
          </mxGeometry>
        </mxCell>
        <mxCell id="Q8EcaYiD4kr5qvAaW-lo-8" value="Melihat Data&lt;br&gt;Tiket" style="ellipse;whiteSpace=wrap;html=1;fontSize=10;" vertex="1" parent="1">
          <mxGeometry x="380" y="280" width="100" height="40" as="geometry" />
        </mxCell>
        <mxCell id="Q8EcaYiD4kr5qvAaW-lo-9" value="" style="edgeStyle=none;html=1;endArrow=none;verticalAlign=bottom;fontSize=10;exitX=1;exitY=0.5;exitDx=0;exitDy=0;" edge="1" parent="1" source="Q8EcaYiD4kr5qvAaW-lo-8">
          <mxGeometry width="160" relative="1" as="geometry">
            <mxPoint x="580" y="350" as="sourcePoint" />
            <mxPoint x="650" y="330" as="targetPoint" />
          </mxGeometry>
        </mxCell>
        <mxCell id="Q8EcaYiD4kr5qvAaW-lo-10" value="Melihat Data&lt;br&gt;Pembayaran" style="ellipse;whiteSpace=wrap;html=1;fontSize=10;" vertex="1" parent="1">
          <mxGeometry x="480" y="320" width="100" height="40" as="geometry" />
        </mxCell>
        <mxCell id="Q8EcaYiD4kr5qvAaW-lo-11" value="" style="edgeStyle=none;html=1;endArrow=none;verticalAlign=bottom;fontSize=10;exitX=1;exitY=0.5;exitDx=0;exitDy=0;" edge="1" parent="1" source="Q8EcaYiD4kr5qvAaW-lo-10">
          <mxGeometry width="160" relative="1" as="geometry">
            <mxPoint x="570" y="380" as="sourcePoint" />
            <mxPoint x="650" y="330" as="targetPoint" />
          </mxGeometry>
        </mxCell>
        <mxCell id="Q8EcaYiD4kr5qvAaW-lo-12" value="Membuat Laporan&lt;br&gt;Bantuan Pelanggan" style="ellipse;whiteSpace=wrap;html=1;fontSize=10;" vertex="1" parent="1">
          <mxGeometry x="425" y="360" width="100" height="40" as="geometry" />
        </mxCell>
        <mxCell id="Q8EcaYiD4kr5qvAaW-lo-13" value="" style="edgeStyle=none;html=1;endArrow=none;verticalAlign=bottom;fontSize=10;exitX=1;exitY=0.5;exitDx=0;exitDy=0;" edge="1" parent="1" source="Q8EcaYiD4kr5qvAaW-lo-12">
          <mxGeometry width="160" relative="1" as="geometry">
            <mxPoint x="520" y="400" as="sourcePoint" />
            <mxPoint x="650" y="330" as="targetPoint" />
          </mxGeometry>
        </mxCell>
        <mxCell id="Q8EcaYiD4kr5qvAaW-lo-14" value="Menghubungi&lt;br&gt;Customer Support" style="ellipse;whiteSpace=wrap;html=1;fontSize=10;" vertex="1" parent="1">
          <mxGeometry x="210" y="250" width="110" height="50" as="geometry" />
        </mxCell>
        <mxCell id="Q8EcaYiD4kr5qvAaW-lo-15" value="" style="edgeStyle=none;html=1;endArrow=none;verticalAlign=bottom;fontSize=10;entryX=0.019;entryY=0.362;entryDx=0;entryDy=0;entryPerimeter=0;" edge="1" parent="1" target="Q8EcaYiD4kr5qvAaW-lo-14">
          <mxGeometry width="160" relative="1" as="geometry">
            <mxPoint x="130" y="100" as="sourcePoint" />
            <mxPoint x="290" y="280" as="targetPoint" />
          </mxGeometry>
        </mxCell>
        <mxCell id="Q8EcaYiD4kr5qvAaW-lo-16" value="&amp;lt;&amp;lt;extend&amp;gt;&amp;gt;" style="edgeStyle=none;html=1;startArrow=open;endArrow=none;startSize=12;verticalAlign=bottom;dashed=1;labelBackgroundColor=none;fontSize=10;" edge="1" parent="1" source="Q8EcaYiD4kr5qvAaW-lo-14" target="Q8EcaYiD4kr5qvAaW-lo-12">
          <mxGeometry width="160" relative="1" as="geometry">
            <mxPoint x="240" y="373" as="sourcePoint" />
            <mxPoint x="420" y="370" as="targetPoint" />
          </mxGeometry>
        </mxCell>
      </root>
    </mxGraphModel>
  </diagram>
</mxfile>
